# xmcd
#
# Track frame offsets:
#	150
#	6567
#	14938
#	22326
#	33676
#	44785
#	53730
#	63258
#	74009
#	81086
#	93360
#	97949
#	112115
#	121133
#	133904
#
# Disc length: 1908 seconds
#
# Revision: 1
# Processed by: cddbd v1.5.2PL0 Copyright (c) Steve Scherf et al.
# Submitted via: audiograbber 1.83.01
#
DISCID=e207720f
DTITLE=The Fantasy Four - Getting Fantastic With...
DYEAR=2010
DGENRE=Indie
TTITLE0=Can't Forget Your Hair
TTITLE1=Grab At The Air
TTITLE2=Shotgun (I Should Be Ridin')
TTITLE3=Lovesick and Sick Of It
TTITLE4=Your Mirrors Must Be Mad
TTITLE5=He's So Mod
TTITLE6=(All The Way Back In) Kansas City
TTITLE7=Wig-Wam Bam
TTITLE8=Open My Eyes
TTITLE9=Right
TTITLE10=Fuckin' A Right
TTITLE11=Comfortable, Uncomfortable
TTITLE12=That's Why
TTITLE13=Warm (You Used To Be)
TTITLE14=Outta My Head
EXTD=
EXTT0=
EXTT1=
EXTT2=
EXTT3=
EXTT4=
EXTT5=
EXTT6=
EXTT7=
EXTT8=
EXTT9=
EXTT10=
EXTT11=
EXTT12=
EXTT13=
EXTT14=
PLAYORDER=
